<?xml version="1.0" encoding="utf-8"?>
<!-- Generator: Adobe Illustrator 18.1.0, SVG Export Plug-In . SVG Version: 6.00 Build 0)  -->
<svg version="1.1" xmlns="http://www.w3.org/2000/svg" xmlns:xlink="http://www.w3.org/1999/xlink" x="0px" y="0px"
	 viewBox="0 0 612 124.7" enable-background="new 0 0 612 124.7" xml:space="preserve">
<g id="Capa_5" display="none">
	<polygon display="inline" fill="none" points="141.7,-245.3 160.5,-236 160.5,-215 119.3,-194.5 105,-201.6 141.7,-219.9 	"/>
	<polygon display="inline" fill="none" points="141.8,-246.3 141.7,-246.2 141.7,-253.5 160.5,-244.2 160.5,-237 	"/>
	<polygon display="inline" fill="none" points="118.7,-160.4 118.7,-149.9 86.3,-133.7 86.3,-144.3 	"/>
	<polygon display="inline" fill="none" points="118.7,-161.4 86.3,-145.3 86.3,-182.5 76.4,-187.4 104,-201.1 118.7,-193.8 	"/>
	<polygon display="inline" fill="none" points="78.6,-214.8 78.6,-236.2 96.5,-245.1 96.5,-251.2 114,-242.5 114,-214.7 
		121.6,-210.9 104,-202.1 	"/>
	<polygon display="inline" fill="none" points="78.6,-277 95.1,-268.8 95.1,-245.4 78.6,-237.2 	"/>
	<polygon display="inline" fill="none" points="310.1,-233.5 145.5,-151.6 145.5,-162.5 310.1,-244.4 	"/>
	<path display="inline" fill="#C4D5DE" d="M206.1-221.7l12-6V-259l-1.4,1.1v29.9l-10.6,5.3v-29.8l-43.9-21.8l-0.4,0.2v-0.2
		l21.1-10.5l-1-0.5l-21.6,10.7v28.6l-18.7-9.3l-0.1,0.1v-29.8h-1.4v64l-17.6,8.8l-7.2-3.6v-27.8l-18.9-9.4v-16.9l-17.8-8.9l-0.1,0.1
		v-6.3h-1.4v69.7l25.8,12.9l-27.5,13.7l-11.7-5.8l0,1l10.7,5.3l-10.8,5.3v1l11.7-5.8l9.5,4.7v73.4h1.4v-23.9l32.4-16.1v40h1.4V-195
		l41.7-20.8v-21.4l0.1-0.1l-0.1-0.1v-8.1l0.1-0.1l-0.1-0.1v-28.1l42.9,21.3v30.2L134.2-187v77.1h1.4v-76.8l69.1-34.4L206.1-221.7z
		 M389.6-285.9L144.1-163.8v54h1.4v-41.8l12.3-6.1l13.7,6.8v41.1h1.4v-41.3l-14.2-7l152.7-76v-11.7h-0.4l79.9-39.7L389.6-285.9z
		 M272.1-286l-66.5,33.1l-0.4,1.4l1-0.7l67.2-33.5L272.1-286z M332.8-285.7l-127.2,63.3l0.7,0.7l128-63.7L332.8-285.7z M145.5-163.5
		l164.6-81.9v10.9l-164.6,81.9V-163.5z M86.3-134.7v-10.6l32.4-16.1v10.6L86.3-134.7z M104-202.1l14.7,7.3v32.4l-32.4,16.1v-37.2
		l-9.9-4.9L104-202.1z M95.1-246.4l-16.6,8.2V-278l16.6,8.2V-246.4z M121.6-211.9l-17.6,8.8l-25.4-12.7v-21.4l18-8.9v-6l17.4,8.7
		v27.8L121.6-211.9z M141.7-220.9v-25.5l18.8,9.4v21l-41.2,20.5l-14.3-7.1L141.7-220.9z M160.5-245.2v7.2l-18.7-9.3l-0.1,0.1v-7.3
		L160.5-245.2z"/>
	<g display="inline">
		<polygon fill="none" points="95,106 78.5,119.1 78.5,55.4 95,68.6 		"/>
		<polygon fill="none" points="121.5,13.4 113.9,19.5 113.9,63.9 96.4,77.8 96.4,68.1 78.5,53.8 78.5,19.6 103.9,-0.6 		"/>
		<polygon fill="none" points="76.4,-24.1 86.2,-32 86.2,-91.5 118.6,-65.7 118.6,-13.9 103.9,-2.2 		"/>
		<polygon fill="none" points="145.4,-81.4 189.4,-46.4 189.4,-28.9 145.4,-63.9 		"/>
		<polygon fill="none" points="141.5,69.8 141.7,70 160.3,55.1 160.3,66.6 141.5,81.6 		"/>
		<polygon fill="none" points="141.5,27.8 104.9,-1.4 119.2,-12.8 160.3,20 160.3,53.5 141.5,68.5 		"/>
		<polygon fill="none" points="74.4,-24.1 63.8,-15.7 63.8,-32.5 		"/>
		<polygon fill="none" points="74.4,304.5 63.8,313.9 63.8,295.1 		"/>
		<polygon fill="none" points="75.4,-23.3 102.9,-1.4 77.1,19.1 77.1,130.6 78.5,130.6 78.5,120.5 78.6,120.6 96.4,106.4 96.4,79.4 
			115.3,64.4 115.3,19.9 122.5,14.2 140.1,28.2 140.1,130.6 141.5,130.6 141.5,82.9 141.7,83 160.3,68.2 160.3,113.8 181.4,130.6 
			160.3,149.5 160.3,200.8 141.7,184.1 141.5,184.2 141.5,130.7 140.1,130.7 140.1,245.7 122.5,261.5 115.3,255 115.3,205.1 
			96.4,188.2 96.4,157.8 78.6,141.9 78.5,142 78.5,130.7 77.1,130.7 77.1,255.9 102.9,279 75.4,303.6 63.8,293.3 63.8,-14.1 		"/>
		<polygon fill="none" points="86.2,-110 118.6,-84.2 118.6,-67.3 86.2,-93.1 		"/>
		<polygon fill="none" points="141.5,198.9 141.5,185.7 160.3,202.6 160.3,215.5 141.7,198.8 		"/>
		<polygon fill="none" points="78.5,143.5 95,158.3 95,200.3 78.5,215.1 		"/>
		<polygon fill="none" points="78.5,255.4 78.5,216.9 96.4,200.9 96.4,190 113.9,205.6 113.9,255.5 121.5,262.3 103.9,278.1 		"/>
		<polygon fill="none" points="104.9,279 141.5,246.2 141.5,200.4 160.3,217.3 160.3,254.9 119.2,291.8 		"/>
		<polygon fill="none" points="118.6,293.1 118.6,351.3 86.2,380.2 86.2,313.3 76.4,304.5 103.9,279.9 		"/>
		<polygon fill="none" points="118.6,372 86.2,401 86.2,382 118.6,353 		"/>
		<polygon fill="none" points="145.4,349.3 189.4,309.9 189.4,329.5 145.4,368.9 		"/>
		<rect x="53.1" y="444.9" fill="#C4D5DE" width="1.4" height="0.8"/>
		<path fill="#C4D5DE" d="M216.5,130.7v102.8l-10.6,9.5v-53.6l-43.9-39.3l-0.4,0.3V150l21.1-18.9l-0.5-0.5l-0.5,0.4l-0.5-0.4
			l-21.1,18.9v51.3l-18.7-16.7l-0.1,0.1v-53.6h-1.4v115.1l-17.6,15.8l-7.2-6.5v-49.9l-18.8-16.9v-30.4l-17.8-15.9l-0.1,0.1v-11.3
			h-1.4v125.2l25.8,23.1l-27.5,24.6l-11.5-10.3v1.8l10.5,9.4l-10.5,9.4v1.8l11.5-10.3l9.5,8.5L84.7,404h1.4l0.1-1.2l32.4-29
			l-0.1,30.2h1.4l0.1-111.3l41.7-37.3V217l0.1-0.1l-0.1-0.1v-14.5l0.1-0.1l-0.1-0.1v-50.5l42.8,38.3v54.3l-70.4,63L134,404h1.4
			l0.1-96.4l69-61.8v48.6L144,348.7l-0.1,55.3h1.4l0.1-33.4l3.1-2.8l9.2-8.2l9.2,8.2l2,0l-10.2-9.1l32.1-28.7V309h-0.4l15.6-13.9
			v-50.4l12-10.7V130.7H216.5z M189.4,329.5l-42.9,38.4l-1.1,1v-19.6l44-39.4V329.5z M86.2,382l32.4-29v19l-32.4,29V382z
			 M103.9,279.9l14.7,13.2v58.2l-32.4,29v-66.9l-9.9-8.8L103.9,279.9z M95,200.3l-16.6,14.8v-71.6L95,158.3V200.3z M121.5,262.3
			l-17.6,15.8l-25.4-22.7v-38.4l18-16.1V190l17.4,15.6v49.9L121.5,262.3z M160.3,215.5l-18.7-16.7l-0.1,0.1v-13.2l18.8,16.8V215.5z
			 M160.3,254.9l-41.2,36.8L104.9,279l36.6-32.8v-45.8l18.8,16.8V254.9z"/>
		<path fill="#C4D5DE" d="M181.9,131l0.5-0.4l0.5-0.4l-21.1-16.8V113l0.4,0.3L206,78.4V30.7l10.6,8.4v91.4h1.4V38.7l-12-9.5v-44.9
			l-15.6-12.4h0.4v-18.7l-32.1-25.6l14.1-11.3v-66.1h-1.4v65.6l-13.7,10.9L145.4-83v-66.8H144v86.3l60.6,48.2V28l-69-54.9v-122.8
			h-1.4v123.3l70.4,56.1v48.3L161.7,112v-45l0.1-0.1l-0.1-0.1V54l0.1-0.1l-0.1-0.1V19.5L120-13.7v-136.1h-1.4v64l-32.4-25.8v-38.2
			h-1.4v117.3l-9.5,7.5l-11.5-9.2v1.6l10.5,8.4l-10.5,8.4v1.6l11.5-9.2l27.5,21.9L77.1,19.1v111.4h1.4v-10.1l0.1,0.1l17.8-14.2V79.4
			l18.8-15V19.9l7.2-5.7l17.6,14v102.4h1.4V82.9l0.1,0.1l18.7-14.9v45.6l21.1,16.8L181.9,131z M78.5,55.4L95,68.6V106l-16.6,13.2
			V55.4z M103.9-0.6l17.6,14l-7.6,6.1v44.4L96.4,77.8v-9.7l-18-14.3V19.6L103.9-0.6z M118.6-67.3L86.2-93.1V-110l32.4,25.8V-67.3z
			 M118.6-13.9L103.9-2.2L76.4-24.1l9.9-7.9v-59.5l32.4,25.8V-13.9z M160.3,53.5l-18.8,15V27.8L104.9-1.4l14.3-11.4L160.3,20V53.5z
			 M160.3,66.6l-18.8,15V69.8l0.1,0.1l18.7-14.9V66.6z M189.4-28.9l-44-35v-17.5l44,35V-28.9z"/>
	</g>
</g>
<g id="Capa_6" display="none">
	<rect x="96.5" y="-252.1" display="inline" fill="#FFFFFF" width="165.7" height="28.8"/>
	<rect x="107.2" y="-237.7" display="inline" fill="#FFFFFF" width="108.1" height="28.8"/>
	<rect x="96.5" y="-256.9" display="inline" fill="#FFFFFF" width="66" height="28.8"/>
</g>
<g id="Vectores_lineas">
</g>
<g id="Capa_2">
</g>
<g id="Capa_1">
</g>
<g id="Capa_3">
</g>
<g id="Capa_4">
	<g>
		<path fill="#FFFFFF" d="M227.3,39.6c2.2-3.1,6.2-4,9.8-4.1c10.1-0.1,20.3,0,30.4,0c3.1,0,6.3,0,9.1,1.6c4.6,2.8,4.2,8.9,4,13.6
			c0.1,1.4-1.4,1.7-2.5,1.6c-4,0-8,0.1-11.9-0.1c-0.7-1.6-0.4-4.5-2.8-4.4c-6.1-0.2-12.3,0-18.4-0.1c-1.3,0.1-3.2-0.2-3.9,1.2
			c-0.5,2-0.4,4.2,0.1,6.3c1,1.1,2.6,0.9,3.9,1c8.2,0,16.3,0,24.5,0c3.7,0,8,0.8,10.3,4.2c2.4,3.6,1.9,8.2,1.9,12.3
			c-0.1,4.1,0.4,8.6-1.9,12.3c-2,3.1-5.9,4-9.3,4.3h-35.7c-3-0.3-6.3-0.9-8.2-3.4c-2.2-3-2-7-2.1-10.5c0-1.1-0.1-2.9,1.5-2.9
			c4-0.1,8.1-0.2,12.1,0c2.3,0.1,0.7,4,3,4.2c5.7,0.4,11.4,0,17.1,0.2c2.3-0.1,4.7,0.3,7-0.4c1.5-0.9,0.8-3,1-4.5
			c-0.2-1.2,0.3-3-1.1-3.6c-0.9-0.5-1.9-0.3-2.9-0.4c-8.2,0-16.4,0-24.5,0c-3.8,0-8.1-0.8-10.4-4.1c-2.5-3.7-2-8.3-2-12.4
			C225.3,47.5,224.9,43.1,227.3,39.6"/>
		<path fill="#FFFFFF" d="M288,35.9c3.4-0.6,6.9-0.3,10.3-0.4c4.4,0.1,8.8-0.2,13.2,0.1c1.4,0,1.8,1.5,2.1,2.6
			c3.5,11.6,7,23.1,10.5,34.6c3.4-10.5,6.4-21,9.6-31.5c0.5-1.6,0.8-3.4,1.7-4.9c0.7-1.1,2.1-0.8,3.2-0.9c6,0,11.9,0,17.9,0
			c1.4,0,2.8,0.2,4.2,0.4c0.3,13.8,0,27.6,0.1,41.4c-0.1,4,0.3,8-0.3,11.9h-14.8c-0.7-3.5-0.3-7.1-0.4-10.6
			c-0.1-9.8,0.2-19.6-0.2-29.3c-3.6,10.3-6.7,20.7-10.1,31.1c-1,3-1.6,6.1-3.2,8.8h-15.9c-1.2-0.9-1.6-2.5-2-3.9
			c-3.5-11-7.1-22-10.5-33.1c-0.3-1-0.8-2-1.2-3c-0.4,10-0.1,20-0.2,30.1c-0.1,3.3,0.4,6.7-0.4,9.9h-13.5c-0.6-3.5-0.3-7.1-0.3-10.6
			C288,64.4,287.7,50.1,288,35.9"/>
		<path fill="#FFFFFF" d="M465.9,59.9c2.6,0,5.1,0,7.3,0c1.3,0,3.3-0.2,3.7-1.9c0.4-2.6,0.3-5.2,0.1-7.8c0-1.7-1.9-2.3-3.2-2.3
			c-6.9-0.2-13.8,0-20.7-0.1c-0.2,4,0.4,35.8-0.6,41.4h-13.5c-1.2-1.2-0.8-3-0.9-4.6c0.1-16.2-0.2-32.5,0.2-48.7
			c1.1-0.2,2.2-0.4,3.3-0.4c12.8,0,25.7,0,38.5,0c3.6,0,7.8,0.8,10,4.2c2.5,4.1,1.7,9.2,1.8,13.8c-0.1,4.7,0.5,9.9-2.3,13.9
			c-2.3,3.3-6.5,4-10.2,4.1c4.4,4.9,8.6,9.8,13,14.7c0.8,0.8,1.2,1.8,1.4,2.9h-16.7c-1.9-1.9-6.6-8-11.2-14.2L465.9,59.9z"/>
		<polygon fill="#FFFFFF" points="113.9,56 102.1,56 91.3,56 78.5,56 78.5,66.6 91.3,66.6 102.1,66.6 113.9,66.6 		"/>
		<path fill="#FFFFFF" d="M85.2,81.2c-10.4,0-18.8-8.4-18.8-18.8c0-10.4,8.4-18.8,18.8-18.8c4.5,0,8.7,1.6,11.9,4.3h13.5
			c-5-8.8-14.5-14.8-25.4-14.8c-16.2,0-29.3,13.1-29.3,29.3c0,16.2,13.1,29.3,29.3,29.3c11.3,0,21-6.4,25.9-15.7h-13
			C94.7,79.2,90.2,81.2,85.2,81.2"/>
		<path fill="#FFFFFF" d="M97.5,76.7c-7.9,6.7-19.8,5.7-26.5-2.2c-6.7-7.9-5.7-19.8,2.2-26.5c3.5-2.9,7.7-4.4,11.9-4.4l10.3-8.7
			c-9.6-3.5-20.6-1.9-29,5.1c-12.4,10.5-13.9,29-3.4,41.3c10.5,12.4,28.9,13.9,41.3,3.4c8.6-7.3,11.9-18.4,9.6-28.7l-9.9,8.4
			C103.6,69,101.4,73.4,97.5,76.7"/>
		<polygon fill="#FFFFFF" points="175,35.5 156.4,35.5 139.3,35.5 119.2,35.5 119.2,47.6 139.3,47.6 156.4,47.6 175,47.6 		"/>
		<polygon fill="#FFFFFF" points="154.6,89.2 154.6,77.4 154.6,66.6 154.6,53.9 139.7,53.9 139.7,66.6 139.7,77.4 139.7,89.2 		"/>
		<polygon fill="#FFFFFF" points="556.1,35.7 537.5,35.7 520.5,35.7 500.4,35.7 500.4,47.8 520.5,47.8 537.5,47.8 556.1,47.8 		"/>
		<polygon fill="#FFFFFF" points="535.7,89.3 535.7,77.6 535.7,66.8 535.7,54 520.8,54 520.8,66.8 520.8,77.6 520.8,89.3 		"/>
		<path fill="#FFFFFF" d="M382.4,89.2h-15.1c0.1-2.6,1.5-4.9,2.4-7.3c5.7-13.7,11.5-27.3,17.2-41c1.1-2.1,1.5-5.9,4.6-5.4
			c5.3,0,10.6,0,15.9,0c1.1,0.1,2.5-0.1,3.1,1c0.9,1.6,1.5,3.3,2.2,5c5.6,13.3,11.2,26.7,16.8,40.1c1,2.5,2.4,4.9,2.6,7.6h-15.6
			c-2.4-2.4-13.9-33.7-16.3-39.9c-0.2-0.7-0.7-1.3-1.2-1.9C396.7,54.2,384.5,86.6,382.4,89.2"/>
		<polygon fill="#FFFFFF" points="418.3,77.9 400.3,77.9 395.8,89.2 422.6,89.2 		"/>
	</g>
	<g>
	</g>
	<g>
	</g>
	<g>
	</g>
	<g>
	</g>
	<g>
	</g>
	<g>
	</g>
</g>
</svg>
